<svg aria-hidden="true" style="position: absolute; width: 0; height: 0; overflow: hidden;" version="1.1" xmlns="http://www.w3.org/2000/svg" xmlns:xlink="http://www.w3.org/1999/xlink">
  <defs>
    <symbol id="icon-logo" viewBox="0 0 204 32">
      <path fill="#3470ff" style="fill: var(--color1, #3470ff)" d="M202.142 15.29c-1.366 0-2.614 0.080-3.744 0.238-1.38 0.211-2.614 0.54-3.791 0.986l0.127-0.042v15.054h-6.858v-22.382h5.084l1.024 2.64c1.366-1.102 2.706-1.89 4.020-2.364 1.215-0.449 2.619-0.708 4.083-0.708 0.019 0 0.038 0 0.057 0h-0.003v6.58zM184.598 31.29c-0.84 0.184-1.59 0.316-2.248 0.394-0.63 0.080-1.38 0.12-2.246 0.12-2.52 0-4.178-0.816-4.966-2.444-0.954 0.726-2.046 1.349-3.216 1.819l-0.094 0.033c-1.044 0.399-2.252 0.631-3.514 0.631-0.040 0-0.079-0-0.118-0.001l0.006 0c-0.032 0.001-0.069 0.001-0.106 0.001-1.127 0-2.189-0.277-3.123-0.767l0.037 0.018c-0.913-0.472-1.659-1.155-2.192-1.987l-0.014-0.023c-0.494-0.772-0.788-1.715-0.788-2.725 0-0.012 0-0.024 0-0.037v0.002c0-1.68 0.42-3.008 1.26-3.98 0.868-0.998 2.024-1.786 3.468-2.364 1.446-0.604 3.64-1.326 6.582-2.168l1.182-0.354v-0.158c0-2.416-1.104-3.626-3.31-3.626-1.078 0-2.234 0.238-3.468 0.71-1.234 0.474-2.654 1.236-4.256 2.286l-1.3-4.73c1.555-0.919 3.354-1.733 5.244-2.349l0.195-0.055c1.736-0.55 3.732-0.866 5.802-0.866 0.039 0 0.077 0 0.116 0l-0.006-0c2.52 0 4.452 0.684 5.792 2.050 1.366 1.366 2.050 3.704 2.050 7.014v7.488c0 0.578 0.118 0.998 0.354 1.26 0.236 0.238 0.618 0.356 1.144 0.356 0.5 0 0.998-0.066 1.496-0.198l0.236 4.65zM168.872 25.418c0 0.526 0.132 0.908 0.394 1.144 0.29 0.236 0.736 0.354 1.34 0.354 1.104 0 2.404-0.472 3.902-1.42v-4.176l-0.59 0.198c-1.972 0.708-3.312 1.34-4.020 1.89-0.684 0.526-1.026 1.196-1.026 2.010zM150.364 32c-3.258 0-6.016-0.63-8.276-1.892-2.26-1.286-3.954-2.98-5.084-5.084-1.043-1.978-1.655-4.323-1.655-6.81 0-0.044 0-0.088 0.001-0.132l-0 0.007c0-2.47 0.578-4.754 1.734-6.856 1.18-2.102 2.93-3.784 5.24-5.044 2.312-1.262 5.098-1.892 8.356-1.892 3.048 0 5.728 0.59 8.040 1.772l-1.42 4.966c-0.863-0.455-1.871-0.857-2.923-1.153l-0.111-0.027c-1.050-0.318-2.246-0.474-3.586-0.474-1.708 0-3.192 0.394-4.454 1.18-1.227 0.764-2.197 1.836-2.816 3.11l-0.020 0.044c-0.632 1.314-0.946 2.786-0.946 4.414 0 2.574 0.682 4.69 2.048 6.344 1.366 1.63 3.324 2.444 5.872 2.444 2.18 0 4.532-0.54 7.054-1.616l1.34 4.848c-1.076 0.552-2.364 1-3.86 1.34-1.5 0.34-3.010 0.512-4.534 0.512z"></path>
      <path fill="#101828" style="fill: var(--color2, #101828)" d="M123.568 0h6.856v31.528h-6.856v-31.528zM120.288 31.29c-0.84 0.184-1.59 0.316-2.246 0.394-0.632 0.080-1.38 0.12-2.246 0.12-2.524 0-4.18-0.816-4.966-2.444-0.954 0.726-2.046 1.349-3.216 1.819l-0.094 0.033c-1.044 0.399-2.252 0.631-3.514 0.631-0.040 0-0.079-0-0.118-0.001l0.006 0c-0.032 0.001-0.069 0.001-0.106 0.001-1.127 0-2.189-0.277-3.123-0.767l0.037 0.018c-0.914-0.472-1.661-1.155-2.195-1.987l-0.013-0.023c-0.494-0.772-0.788-1.714-0.788-2.725 0-0.012 0-0.025 0-0.037v0.002c0-1.68 0.42-3.008 1.26-3.98 0.868-0.998 2.024-1.786 3.47-2.364 1.444-0.604 3.64-1.326 6.58-2.168l1.184-0.354v-0.158c0-2.416-1.104-3.626-3.312-3.626-1.076 0-2.232 0.238-3.468 0.71-1.234 0.474-2.652 1.236-4.256 2.286l-1.3-4.73c1.556-0.919 3.356-1.734 5.246-2.349l0.195-0.055c1.736-0.55 3.732-0.866 5.802-0.866 0.038 0 0.076 0 0.114 0l-0.006-0c2.522 0 4.454 0.684 5.794 2.050 1.366 1.366 2.048 3.704 2.048 7.014v7.488c0 0.578 0.12 0.998 0.356 1.26 0.236 0.238 0.616 0.356 1.14 0.356 0.5 0 1-0.066 1.5-0.198l0.236 4.65zM104.564 25.418c0 0.526 0.132 0.908 0.394 1.144 0.288 0.236 0.736 0.354 1.34 0.354 1.104 0 2.404-0.472 3.9-1.42v-4.176l-0.59 0.198c-1.97 0.708-3.31 1.34-4.020 1.89-0.682 0.526-1.024 1.196-1.024 2.010zM95.248 30.068c-0.813 0.559-1.758 1.004-2.772 1.284l-0.066 0.016c-0.943 0.27-2.028 0.429-3.148 0.436l-0.004 0c-2.784 0-4.86-0.606-6.226-1.814-1.366-1.234-2.050-2.994-2.050-5.28v-10.72h-3.35v-2.876l4.218-1.696 1.892-6.028h4.098v5.75h6.304v4.848h-6.304v9.064c0 1.392 0.222 2.378 0.67 2.956 0.446 0.578 1.116 0.866 2.010 0.866 1.156 0 2.378-0.34 3.664-1.024l1.064 4.216zM66.38 8.67c2.916 0 4.926 0.774 6.030 2.326 1.13 1.55 1.694 3.782 1.694 6.7v13.832h-6.856v-12.968c0-1.84-0.224-3.114-0.67-3.824-0.42-0.708-1.248-1.064-2.484-1.064-1.34 0-2.706 0.448-4.098 1.34v16.514h-6.856v-22.386h5.082l0.71 1.854c2.574-1.552 5.058-2.326 7.448-2.326zM34.056 21.596c0.132 1.866 0.592 3.244 1.38 4.138s1.996 1.34 3.626 1.34c0.027 0 0.059 0 0.091 0 1.174 0 2.295-0.232 3.318-0.652l-0.058 0.021c1.050-0.448 2.246-1.104 3.586-1.972l1.852 4.336c-1.392 1.13-2.772 1.944-4.14 2.444-1.364 0.5-2.928 0.748-4.688 0.748-2.6 0-4.78-0.5-6.54-1.498-1.762-1.024-3.076-2.404-3.942-4.138-0.84-1.76-1.26-3.756-1.26-5.99 0-3.546 0.996-6.384 2.994-8.512 1.996-2.128 4.912-3.192 8.748-3.192 3.048 0 5.36 0.828 6.936 2.482 1.602 1.63 2.418 3.954 2.444 6.976 0 1.182-0.172 2.34-0.512 3.468h-13.834zM41.742 17.142c0.026-0.156 0.040-0.366 0.040-0.63-0.028-1.076-0.316-1.892-0.868-2.444-0.552-0.578-1.314-0.866-2.286-0.866-2.312 0-3.756 1.314-4.334 3.94h7.448zM10.876 21.676h-3.782v9.852h-7.094v-26.8h10.72c3.836 0 6.634 0.658 8.394 1.972 1.76 1.286 2.64 3.322 2.64 6.108 0 3.626-1.328 6.056-3.98 7.29l7.526 11.43h-8.196l-6.228-9.852zM7.094 16.746h3.626c1.392 0 2.39-0.288 2.994-0.866 0.63-0.58 0.946-1.472 0.946-2.68 0-1.26-0.302-2.168-0.906-2.72-0.604-0.55-1.616-0.826-3.034-0.826h-3.626v7.092z"></path>
    </symbol>
  </defs>
</svg>
